<svg xmlns="http://www.w3.org/2000/svg" xmlns:xlink="http://www.w3.org/1999/xlink" width="326" height="171" viewBox="0 0 326 171">
    <defs>
        <linearGradient id="a" x1="116.341%" x2="14.533%" y1="50%" y2="50%">
            <stop offset="0%" stop-color="#F9FBFF"/>
            <stop offset="100%" stop-color="#D1E0FF"/>
        </linearGradient>
        <linearGradient id="c" x1="7.382%" x2="91.856%" y1="50%" y2="88.535%">
            <stop offset="0%" stop-color="#E3ECFF"/>
            <stop offset="100%" stop-color="#B1C6FF"/>
        </linearGradient>
        <path id="b" d="M133.986 27.398c-25.839-20.78-84.683 8.283-114.68 35.613a.92.92 0 0 0 .72 1.602l17.34-1.886a.925.925 0 0 1 .681.197.934.934 0 0 1 .338.622l2.457 22.766c.025.244.15.47.339.622a.927.927 0 0 0 .68.197l22.776-2.467a.923.923 0 0 1 1.018.816l2.47 22.778c.026.24.15.465.339.619a.926.926 0 0 0 .681.197l22.768-2.47a.924.924 0 0 1 1.02.816l2.47 22.772a.923.923 0 0 0 1.02.816l22.768-2.473a.928.928 0 0 1 .682.196.936.936 0 0 1 .338.623l1.876 17.353a.924.924 0 0 0 1.72.36c20.26-35.176 36.024-98.883 10.179-119.669z"/>
        <linearGradient id="d" x1="59.613%" x2="44.172%" y1="17.45%" y2="85.069%">
            <stop offset="0%" stop-color="#F5F8FF"/>
            <stop offset="100%" stop-color="#D0DDFF"/>
        </linearGradient>
        <linearGradient id="g" x1="7.382%" x2="91.856%" y1="50%" y2="65.478%">
            <stop offset="0%" stop-color="#E3ECFF"/>
            <stop offset="100%" stop-color="#B1C6FF"/>
        </linearGradient>
        <path id="f" d="M125.09 37.836a.914.914 0 0 0-1.3 0l-16.197 16.196a.905.905 0 0 1-.65.273.905.905 0 0 1-.651-.273l-16.202-16.2a.907.907 0 0 0-.65-.27.907.907 0 0 0-.651.27L72.587 54.03a.913.913 0 0 1-1.301 0L55.084 37.833a.908.908 0 0 0-.651-.272.905.905 0 0 0-.65.272l-16.202 16.2a.906.906 0 0 1-.651.272.903.903 0 0 1-.65-.272L20.084 37.837a.915.915 0 0 0-1.301 0L4.268 52.34a.91.91 0 0 0-.262.753c3.908 35.21 32.818 69.729 67.93 69.729 35.112 0 64.028-34.516 67.937-69.722a.914.914 0 0 0-.263-.754l-14.52-14.51z"/>
        <linearGradient id="h" x1="66.225%" x2="39.656%" y1="111.283%" y2="24.455%">
            <stop offset="0%" stop-color="#F5F8FF"/>
            <stop offset="100%" stop-color="#D0DDFF"/>
        </linearGradient>
    </defs>
    <g fill="none" fill-rule="evenodd">
        <path fill="url(#a)" d="M182.186 151c22.604.045 40.814 2.266 40.814 5 0 .86-1.799 1.668-4.967 2.374 6.14.911 9.967 2.199 9.967 3.626 0 2.761-14.327 5-32 5-17.673 0-32-2.239-32-5 0-.485.442-.954 1.265-1.397C150.414 159.842 140 158.067 140 156c0-2.761 18.58-5 41.5-5z" transform="translate(-27 -7)"/>
        <text fill="#80A7FA" font-family="ArialRoundedMTBold, Arial Rounded MT Bold" font-size="34.08" transform="translate(-27 -7)">
            <tspan x="153.123" y="106">404</tspan>
        </text>
        <g transform="translate(170 19.664)">
            <mask id="e" fill="#fff">
                <use xlink:href="#b"/>
            </mask>
            <use fill="url(#c)" fill-rule="nonzero" transform="rotate(68 83.233 83.933)" xlink:href="#b"/>
            <path fill="url(#d)" d="M39.896 145.203c20.964-3.823 35.41-8.779 43.337-14.867l-8.981-12.409 13.576-4.539-7.745-20.31 24.202-6.742-16.457-19.5 16.457-5.135L93.2 47.336l1.923-4.749c-1.053-6.992-6.938-15.158-17.655-24.496-10.717-9.34-21.976 12.608-33.776 65.842l-6.075 51.403 2.279 9.867z" mask="url(#e)"/>
        </g>
        <g transform="translate(-27 36.439)">
            <mask id="i" fill="#fff">
                <use xlink:href="#f"/>
            </mask>
            <use fill="url(#g)" fill-rule="nonzero" transform="rotate(59 71.94 80.192)" xlink:href="#f"/>
            <path fill="url(#h)" d="M60.959 7.843l7.151 8.968L58 36.085l6.938 5.825-3.223 15.31 15.331 9.938v13.034l-5.107 2.74 11.33 3.665v7.208l18.095 3.239 2.707 15.517h15.318v6l9.929 5h5.71l8.444-16-8.443-20.964-12.894-29.377-10.239-18.35L93.09 12.509 71.94 0z" mask="url(#i)"/>
        </g>
        <path stroke="#BFD1FF" stroke-linecap="round" stroke-linejoin="round" stroke-width="3" d="M143.032 53.906L135.5 48.5M156.5 51.5v-10M170.75 53.25l5.75-5.75"/>
        <g transform="translate(31.122 -7)">
            <g fill-rule="nonzero">
                <path fill="#B5C9FF" d="M128.973 12.856c.802-.287 27.505-5.414 27.505-5.414l1.83 3.77-29.335 1.644z"/>
                <path fill="#83A0ED" d="M158.31 11.202l-1.872 11.624-27.465-9.97z"/>
                <path fill="#D9E5FF" d="M156.438 22.826l-27.465-9.97 31.758 2.655z"/>
                <path fill="#B5C9FF" d="M160.73 15.51l-31.757-2.654 34.558 9.273z"/>
            </g>
            <path stroke="#C1D5FF" stroke-dasharray="2.4" stroke-width=".8" d="M158.31 14.183c26.203 1.998 22.421 24.847-11.347 68.55-33.767 43.702-9.768 56.038 71.998 37.01"/>
            <path fill="#D8E5FF" fill-rule="nonzero" d="M247.092 97.568A3.091 3.091 0 1 1 244 94.476a3.082 3.082 0 0 1 3.092 3.092z"/>
            <circle cx="3.593" cy="13.522" r="3.223" fill="#D8E5FF" fill-rule="nonzero"/>
            <circle cx="239.392" cy="38.144" r="2.686" fill="#D8E5FF" fill-rule="nonzero"/>
            <circle cx="192.569" cy="58.247" r="2.3" fill="#D8E5FF" fill-rule="nonzero"/>
            <circle cx="255.149" cy="175.935" r="2.3" fill="#D8E5FF" fill-rule="nonzero"/>
        </g>
    </g>
</svg>
