<svg xmlns="http://www.w3.org/2000/svg" xmlns:xlink="http://www.w3.org/1999/xlink" width="72" height="72" viewBox="0 0 72 72">
  <defs>
    <style>
      .cls-1 {
        fill: #fff;
        stroke: #707070;
      }

      .cls-2 {
        clip-path: url(#clip-path);
      }

      .cls-3 {
        fill: #e7f9e7;
      }

      .cls-4 {
        fill: #17cc10;
      }

      .cls-5 {
        fill: #8be587;
      }
    </style>
    <clipPath id="clip-path">
      <rect id="Rectangle_3462" data-name="Rectangle 3462" class="cls-1" width="72" height="72" transform="translate(-6133 -7312)"/>
    </clipPath>
  </defs>
  <g id="_20KScalerstudentcommunity" data-name="20KScalerstudentcommunity" class="cls-2" transform="translate(6133 7312)">
    <g id="Group_18437" data-name="Group 18437" transform="translate(-6268.71 -4135.449)">
      <path id="Path_15329" data-name="Path 15329" class="cls-3" d="M203.247-3127.081v-26.762a8,8,0,0,0-4-6.928l-23.177-13.382a8,8,0,0,0-8,0l-23.177,13.382a8,8,0,0,0-4,6.928v26.762a8,8,0,0,0,4,6.928l23.177,13.382a8,8,0,0,0,8,0l23.177-13.382A8,8,0,0,0,203.247-3127.081Z"/>
      <g id="Group_18435" data-name="Group 18435">
        <path id="Path_15330" data-name="Path 15330" class="cls-4" d="M192.76-3131.176c-.5-3.522-1.887-7-5.115-8.091a4.456,4.456,0,0,0,2.1-3.773,4.4,4.4,0,0,0-4.4-4.4,4.4,4.4,0,0,0-4.4,4.4,4.458,4.458,0,0,0,2.1,3.773,6.744,6.744,0,0,0-2.347,1.467,18.735,18.735,0,0,1,1.844,6.163,2.747,2.747,0,0,1-.293,1.719h9.475A1.1,1.1,0,0,0,192.76-3131.176Zm-7.463-13.29a1.414,1.414,0,0,0-1.425,1.426.662.662,0,0,1-.671.67.662.662,0,0,1-.671-.67,2.791,2.791,0,0,1,2.767-2.767.661.661,0,0,1,.671.67A.662.662,0,0,1,185.3-3144.466Zm-10.439,3.312a5.283,5.283,0,0,0,2.516-4.528,5.333,5.333,0,0,0-5.325-5.324,5.332,5.332,0,0,0-5.324,5.324,5.39,5.39,0,0,0,2.515,4.528c-3.857,1.342-5.534,5.492-6.12,9.727a1.313,1.313,0,0,0,1.3,1.509h15.3a1.314,1.314,0,0,0,1.3-1.509C180.35-3135.662,178.715-3139.812,174.858-3141.154Zm-2.809-6.246a1.726,1.726,0,0,0-1.719,1.718.8.8,0,0,1-.8.8.8.8,0,0,1-.8-.8,3.293,3.293,0,0,1,3.312-3.312.8.8,0,0,1,.8.8A.8.8,0,0,1,172.049-3147.4Zm20.711,16.224c-.5-3.522-1.887-7-5.115-8.091a4.456,4.456,0,0,0,2.1-3.773,4.4,4.4,0,0,0-4.4-4.4,4.4,4.4,0,0,0-4.4,4.4,4.458,4.458,0,0,0,2.1,3.773,6.744,6.744,0,0,0-2.347,1.467,18.735,18.735,0,0,1,1.844,6.163,2.747,2.747,0,0,1-.293,1.719h9.475A1.1,1.1,0,0,0,192.76-3131.176Zm-7.463-13.29a1.414,1.414,0,0,0-1.425,1.426.662.662,0,0,1-.671.67.662.662,0,0,1-.671-.67,2.791,2.791,0,0,1,2.767-2.767.661.661,0,0,1,.671.67A.662.662,0,0,1,185.3-3144.466Zm-23.687,12.829a19.822,19.822,0,0,1,1.845-6.163,5.879,5.879,0,0,0-2.348-1.467,4.456,4.456,0,0,0,2.1-3.773,4.4,4.4,0,0,0-4.4-4.4,4.4,4.4,0,0,0-4.4,4.4,4.457,4.457,0,0,0,2.1,3.773c-3.229,1.132-4.612,4.569-5.115,8.091a1.1,1.1,0,0,0,1.09,1.258h9.475A2.468,2.468,0,0,1,161.61-3131.637Zm-2.809-12.829a1.414,1.414,0,0,0-1.425,1.426.661.661,0,0,1-.671.67.662.662,0,0,1-.671-.67,2.791,2.791,0,0,1,2.767-2.767.661.661,0,0,1,.671.67A.662.662,0,0,1,158.8-3144.466Z"/>
      </g>
      <path id="Path_15331" data-name="Path 15331" class="cls-5" d="M172.334-3162.079l1.207,2.446a.3.3,0,0,0,.222.161l2.7.392a.3.3,0,0,1,.164.5l-1.953,1.9a.3.3,0,0,0-.085.261l.461,2.688a.294.294,0,0,1-.427.31l-2.414-1.269a.3.3,0,0,0-.274,0l-2.413,1.269a.3.3,0,0,1-.428-.31l.461-2.688a.294.294,0,0,0-.084-.261l-1.953-1.9a.294.294,0,0,1,.163-.5l2.7-.392a.294.294,0,0,0,.221-.161l1.207-2.446A.294.294,0,0,1,172.334-3162.079Z"/>
      <g id="Group_18436" data-name="Group 18436">
        <path id="Path_15332" data-name="Path 15332" class="cls-5" d="M185.81-3157.816l.81,1.642a.2.2,0,0,0,.149.108l1.812.263a.2.2,0,0,1,.109.337l-1.311,1.278a.2.2,0,0,0-.057.175l.31,1.8a.2.2,0,0,1-.287.209l-1.62-.852a.194.194,0,0,0-.184,0l-1.621.852a.2.2,0,0,1-.286-.209l.309-1.8a.2.2,0,0,0-.057-.175l-1.311-1.278a.2.2,0,0,1,.11-.337l1.812-.263a.2.2,0,0,0,.148-.108l.811-1.642A.2.2,0,0,1,185.81-3157.816Z"/>
        <path id="Path_15333" data-name="Path 15333" class="cls-5" d="M158.685-3157.816l.81,1.642a.2.2,0,0,0,.149.108l1.812.263a.2.2,0,0,1,.109.337l-1.311,1.278a.2.2,0,0,0-.057.175l.31,1.8a.2.2,0,0,1-.287.209l-1.62-.852a.194.194,0,0,0-.184,0l-1.621.852a.2.2,0,0,1-.286-.209l.309-1.8a.2.2,0,0,0-.057-.175l-1.311-1.278a.2.2,0,0,1,.11-.337l1.812-.263a.2.2,0,0,0,.148-.108l.811-1.642A.2.2,0,0,1,158.685-3157.816Z"/>
      </g>
    </g>
  </g>
</svg>
