<svg xmlns="http://www.w3.org/2000/svg" xmlns:xlink="http://www.w3.org/1999/xlink" width="72" height="72" viewBox="0 0 72 72">
  <defs>
    <style>
      .cls-1 {
        fill: #fff;
        stroke: #707070;
      }

      .cls-2 {
        clip-path: url(#clip-path);
      }

      .cls-3 {
        fill: #fee9cc;
      }

      .cls-4 {
        fill: #fdbd66;
      }

      .cls-5 {
        fill: #fc9100;
      }
    </style>
    <clipPath id="clip-path">
      <rect id="Rectangle_3451" data-name="Rectangle 3451" class="cls-1" width="72" height="72" transform="translate(-6133 -7312)"/>
    </clipPath>
  </defs>
  <g id="_180employerpartners" data-name="180employerpartners" class="cls-2" transform="translate(6133 7312)">
    <g id="Group_18419" data-name="Group 18419" transform="translate(-6181.71 -4135.449)">
      <path id="Path_15303" data-name="Path 15303" class="cls-3" d="M116.064-3127.407v-26.763a8,8,0,0,0-4-6.928l-23.177-13.381a8,8,0,0,0-8,0L57.71-3161.1a8,8,0,0,0-4,6.928v26.763a8,8,0,0,0,4,6.928L80.887-3107.1a8,8,0,0,0,8,0l23.177-13.381A8,8,0,0,0,116.064-3127.407Z"/>
      <g id="Group_18408" data-name="Group 18408">
        <g id="Group_18407" data-name="Group 18407">
          <path id="Path_15304" data-name="Path 15304" class="cls-4" d="M68.1-3132.654H64.889a1,1,0,0,1-1-1v-16.1a1,1,0,0,1,1-1H68.1a1,1,0,0,1,1,1v16.1A1,1,0,0,1,68.1-3132.654Z"/>
          <path id="Path_15305" data-name="Path 15305" class="cls-4" d="M101.675-3132.679h3.211a1,1,0,0,0,1-1v-16.1a1,1,0,0,0-1-1h-3.211a1,1,0,0,0-1,1v16.1A1,1,0,0,0,101.675-3132.679Z"/>
          <path id="Path_15306" data-name="Path 15306" class="cls-5" d="M91.867-3148.606l-1.942-1.719a4.55,4.55,0,0,0-6.372-.447l-5.852,5.133a2.454,2.454,0,0,0-.2,3.448,2.451,2.451,0,0,0,3.392.2l5.1-4.446a.792.792,0,0,1,1.094.049l10.964,11.445h.685v-13.667Z"/>
          <path id="Path_15307" data-name="Path 15307" class="cls-5" d="M94.083-3135.631l-8.125-8.509-3.844,3.494a4.173,4.173,0,0,1-5.9-.269h0a4.173,4.173,0,0,1,.269-5.89l4.173-3.815a5.259,5.259,0,0,0-6.812,1.763H71.128v14.52H73.51l3.862,3.947a2.055,2.055,0,0,0,2.51.428h0a2.055,2.055,0,0,0,.666-3.031l2.015,2.252a1.963,1.963,0,0,0,2.24.494l.05-.022a2.043,2.043,0,0,0,.731-3.229c-1.34-1.518-2.572-2.965-2.572-2.965l3.87,4.364a2.082,2.082,0,0,0,2.512.459l.05-.027a2.224,2.224,0,0,0,.422-3.47c-1.847-2.008-3.85-4.33-3.85-4.33s3.533,3.793,5.378,5.763a2.043,2.043,0,0,0,2.26.5l.053-.022A1.6,1.6,0,0,0,94.083-3135.631Z"/>
        </g>
      </g>
    </g>
  </g>
</svg>
