<svg xmlns="http://www.w3.org/2000/svg" xmlns:xlink="http://www.w3.org/1999/xlink" width="72" height="72" viewBox="0 0 72 72">
  <defs>
    <style>
      .cls-1 {
        fill: #fff;
        stroke: #707070;
      }

      .cls-2 {
        clip-path: url(#clip-path);
      }

      .cls-3 {
        fill: #e9d9f5;
      }

      .cls-4 {
        fill: #9243ce;
      }

      .cls-5 {
        fill: #bd8ee1;
      }
    </style>
    <clipPath id="clip-path">
      <rect id="Rectangle_3463" data-name="Rectangle 3463" class="cls-1" width="72" height="72" transform="translate(-6133 -7312)"/>
    </clipPath>
  </defs>
  <g id="peopleworkingintheindustry" class="cls-2" transform="translate(6133 7312)">
    <g id="Group_18439" data-name="Group 18439" transform="translate(-6357.71 -4135.449)">
      <path id="Path_15334" data-name="Path 15334" class="cls-3" d="M291.75-3127.081v-26.762a8,8,0,0,0-4-6.928l-23.177-13.382a8,8,0,0,0-8,0L233.4-3160.771a8,8,0,0,0-4,6.928v26.762a8,8,0,0,0,4,6.928l23.177,13.382a8,8,0,0,0,8,0l23.177-13.382A8,8,0,0,0,291.75-3127.081Z"/>
      <g id="Group_18438" data-name="Group 18438">
        <circle id="Ellipse_774" data-name="Ellipse 774" class="cls-4" cx="4.328" cy="4.328" r="4.328" transform="translate(240.219 -3152.851)"/>
        <path id="Path_15335" data-name="Path 15335" class="cls-4" d="M252.32-3135.272l4.726-2.385a1.981,1.981,0,0,0,.883-2.65,1.98,1.98,0,0,0-2.65-.884l-3.71,1.9s-2.031-1.413-2.694-1.9a10.665,10.665,0,0,0-2.826-1.678c-1.281-.442-4.682-.707-5.61,1.5-1.015,2.3-.839,8.3-.795,12.631a.616.616,0,0,0,.619.663h7.111c.441,0,.574-.221.618-.574.044-.221.442-5.124.4-7.244v-.751l1.9,1.281a2.038,2.038,0,0,0,1.1.354A2.088,2.088,0,0,0,252.32-3135.272Z"/>
        <circle id="Ellipse_775" data-name="Ellipse 775" class="cls-4" cx="4.328" cy="4.328" r="4.328" transform="translate(272.284 -3152.851)"/>
        <path id="Path_15336" data-name="Path 15336" class="cls-5" d="M280.72-3141.412c-.928-2.208-4.329-1.943-5.61-1.5a11.474,11.474,0,0,0-2.826,1.678c-.663.486-2.694,1.9-2.694,1.9l-3.71-1.855a1.98,1.98,0,0,0-2.65.884,1.981,1.981,0,0,0,.883,2.65l4.726,2.429a2.015,2.015,0,0,0,.883.221,1.928,1.928,0,0,0,1.1-.354l1.9-1.281v.751c-.044,2.164.4,7.023.4,7.244a.569.569,0,0,0,.618.574h7.111a.615.615,0,0,0,.619-.663C281.559-3133.064,281.736-3139.071,280.72-3141.412Z"/>
        <path id="Path_15337" data-name="Path 15337" class="cls-4" d="M268.4-3131.077H252.762a1.49,1.49,0,0,0-1.5,1.5,1.49,1.49,0,0,0,1.5,1.5H268.4a1.49,1.49,0,0,0,1.5-1.5A1.49,1.49,0,0,0,268.4-3131.077Z"/>
      </g>
      <path id="Path_15338" data-name="Path 15338" class="cls-5" d="M276.791-3160.31l.821,1.662a.2.2,0,0,0,.15.109l1.834.267a.2.2,0,0,1,.111.341l-1.327,1.293a.2.2,0,0,0-.058.177l.314,1.827a.2.2,0,0,1-.291.211l-1.64-.863a.2.2,0,0,0-.186,0l-1.64.863a.2.2,0,0,1-.29-.211l.313-1.827a.2.2,0,0,0-.058-.177l-1.327-1.293a.2.2,0,0,1,.111-.341l1.834-.267a.2.2,0,0,0,.151-.109l.82-1.662A.2.2,0,0,1,276.791-3160.31Z"/>
    </g>
  </g>
</svg>
