<svg xmlns="http://www.w3.org/2000/svg" xmlns:xlink="http://www.w3.org/1999/xlink" width="72" height="72" viewBox="0 0 72 72">
  <defs>
    <style>
      .cls-1 {
        fill: #fff;
        stroke: #707070;
      }

      .cls-2 {
        clip-path: url(#clip-path);
      }

      .cls-3 {
        fill: #e7f3ff;
      }

      .cls-4 {
        fill: #0f8cff;
      }

      .cls-5 {
        fill: #87c5ff;
      }
    </style>
    <clipPath id="clip-path">
      <rect id="Rectangle_3464" data-name="Rectangle 3464" class="cls-1" width="72" height="72" transform="translate(-6133 -7312)"/>
    </clipPath>
  </defs>
  <g id="Optimizeyourresume" class="cls-2" transform="translate(6133 7312)">
    <g id="Group_18443" data-name="Group 18443" transform="translate(-6439.71 -4135.449)">
      <path id="Path_15339" data-name="Path 15339" class="cls-3" d="M373.651-3127.081v-26.762a8,8,0,0,0-4-6.928l-23.177-13.382a8,8,0,0,0-8,0L315.3-3160.771a8,8,0,0,0-4,6.928v26.762a8,8,0,0,0,4,6.928l23.177,13.382a8,8,0,0,0,8,0l23.177-13.382A8,8,0,0,0,373.651-3127.081Z"/>
      <g id="Group_18442" data-name="Group 18442">
        <g id="Group_18441" data-name="Group 18441">
          <g id="Group_18440" data-name="Group 18440">
            <path id="Path_15340" data-name="Path 15340" class="cls-4" d="M338.513-3145.6a5.963,5.963,0,0,0-5.945-5.945,5.962,5.962,0,0,0-5.945,5.945,5.963,5.963,0,0,0,5.945,5.945A5.963,5.963,0,0,0,338.513-3145.6Z"/>
            <path id="Path_15341" data-name="Path 15341" class="cls-4" d="M334.919-3138.408a7.66,7.66,0,0,1-2.351.378,7.65,7.65,0,0,1-2.351-.378,6.044,6.044,0,0,0-6.594,1.783,8.325,8.325,0,0,0-1.864,5.242,2,2,0,0,0,2,2h17.619a2,2,0,0,0,2-2,8.325,8.325,0,0,0-1.865-5.242A6.055,6.055,0,0,0,334.919-3138.408Z"/>
          </g>
        </g>
        <path id="Path_15342" data-name="Path 15342" class="cls-5" d="M361.708-3147.076H346.3a1.468,1.468,0,0,0-1.48,1.48,1.468,1.468,0,0,0,1.48,1.48h15.411a1.468,1.468,0,0,0,1.481-1.48A1.468,1.468,0,0,0,361.708-3147.076Z"/>
        <path id="Path_15343" data-name="Path 15343" class="cls-5" d="M361.708-3141.132H346.3a1.468,1.468,0,0,0-1.48,1.481,1.468,1.468,0,0,0,1.48,1.48h15.411a1.468,1.468,0,0,0,1.481-1.48A1.468,1.468,0,0,0,361.708-3141.132Z"/>
        <path id="Path_15344" data-name="Path 15344" class="cls-5" d="M354.319-3135.187H346.3a1.468,1.468,0,0,0-1.48,1.481,1.468,1.468,0,0,0,1.48,1.48h8.022a1.468,1.468,0,0,0,1.48-1.48A1.468,1.468,0,0,0,354.319-3135.187Z"/>
      </g>
    </g>
  </g>
</svg>
